Saira-PARAMETRIC-JUN_XOPQ10.ufo
<glyph name="numbersign" format="2">
  <advance width="792.23913"/>
  <unicode hex="0023"/>
  <outline>
    <contour>
      <point x="120.957" y="0" type="line"/>
      <point x="182.674" y="0" type="line"/>
      <point x="226.5" y="191.13" type="line"/>
      <point x="399.239" y="191.13" type="line"/>
      <point x="355.413" y="0" type="line"/>
      <point x="417.13" y="0" type="line"/>
      <point x="460.957" y="191.13" type="line"/>
      <point x="594.696" y="191.13" type="line"/>
      <point x="594.696" y="251.761" type="line"/>
      <point x="474.935" y="251.761" type="line"/>
      <point x="515.87" y="428.957" type="line"/>
      <point x="631.696" y="428.957" type="line"/>
      <point x="631.696" y="489.587" type="line"/>
      <point x="529.848" y="489.587" type="line"/>
      <point x="576.13" y="688" type="line"/>
      <point x="514.413" y="688" type="line"/>
      <point x="468.13" y="489.587" type="line"/>
      <point x="295.391" y="489.587" type="line"/>
      <point x="341.674" y="688" type="line"/>
      <point x="279.957" y="688" type="line"/>
      <point x="233.674" y="489.587" type="line"/>
      <point x="104.217" y="489.587" type="line"/>
      <point x="104.217" y="428.957" type="line"/>
      <point x="219.696" y="428.957" type="line"/>
      <point x="178.761" y="251.761" type="line"/>
      <point x="67.217" y="251.761" type="line"/>
      <point x="67.217" y="191.13" type="line"/>
      <point x="164.783" y="191.13" type="line"/>
    </contour>
    <contour>
      <point x="240.478" y="251.761" type="line"/>
      <point x="281.413" y="428.957" type="line"/>
      <point x="454.152" y="428.957" type="line"/>
      <point x="413.217" y="251.761" type="line"/>
    </contour>
  </outline>
</glyph>
<glyph name="quotesingle" format="2">
  <advance width="175"/>
  <unicode hex="0027"/>
  <anchor x="0" y="0" name="#entry"/>
  <anchor x="176" y="0" name="#exit"/>
  <outline>
    <contour>
      <point x="59" y="444" type="line"/>
      <point x="115" y="444" type="line"/>
      <point x="127" y="612" type="line"/>
      <point x="127" y="688" type="line"/>
      <point x="48" y="688" type="line"/>
      <point x="48" y="612" type="line"/>
    </contour>
  </outline>
</glyph>
<glyph name="parenleft" format="2">
  <advance width="307.80435"/>
  <unicode hex="0028"/>
  <outline>
    <contour>
      <point x="227.087" y="-150" type="curve"/>
      <point x="287.804" y="-150" type="line"/>
      <point x="203.065" y="-39.348"/>
      <point x="158.696" y="11.391"/>
      <point x="158.696" y="297" type="curve" smooth="yes"/>
      <point x="158.696" y="581.522"/>
      <point x="203.065" y="632.348"/>
      <point x="287.804" y="743" type="curve"/>
      <point x="227.087" y="743" type="line"/>
      <point x="117.478" y="617"/>
      <point x="80.217" y="559"/>
      <point x="80.217" y="297" type="curve" smooth="yes"/>
      <point x="80.217" y="34"/>
      <point x="117.478" y="-20.739"/>
    </contour>
  </outline>
</glyph>
<glyph name="comma" format="2">
  <advance width="122"/>
  <unicode hex="002C"/>
  <outline>
    <contour>
      <point x="48" y="-100" type="line"/>
      <point x="68" y="-100"/>
      <point x="72" y="-83"/>
      <point x="72" y="0" type="curve" smooth="yes"/>
      <point x="72" y="110" type="line"/>
      <point x="50" y="110" type="line"/>
      <point x="50" y="0" type="line"/>
      <point x="59" y="0" type="line"/>
      <point x="59" y="-20" type="line" smooth="yes"/>
      <point x="59" y="-49"/>
      <point x="57" y="-55"/>
      <point x="48" y="-55" type="curve"/>
    </contour>
  </outline>
</glyph>
<glyph name="A" format="2">
  <advance width="550"/>
  <unicode hex="0041"/>
  <anchor x="275" y="0" name="bottom"/>
  <anchor x="495" y="10" name="ogonek"/>
  <anchor x="275" y="688" name="top"/>
  <outline>
    <contour>
      <point x="10" y="0" type="line"/>
      <point x="97" y="0" type="line"/>
      <point x="308" y="643" type="line"/>
      <point x="314" y="643" type="line"/>
      <point x="529" y="0" type="line"/>
      <point x="540" y="0" type="line"/>
      <point x="310" y="688" type="line"/>
      <point x="240" y="688" type="line"/>
    </contour>
    <contour>
      <point x="126" y="189" type="line"/>
      <point x="469" y="189" type="line"/>
      <point x="444" y="263" type="line"/>
      <point x="153" y="263" type="line"/>
    </contour>
  </outline>
</glyph>
<glyph name="B" format="2">
  <advance width="555"/>
  <unicode hex="0042"/>
  <anchor x="269" y="0" name="bottom"/>
  <anchor x="269" y="688" name="top"/>
  <outline>
    <contour>
      <point x="100" y="0" type="line"/>
      <point x="294" y="0" type="line" smooth="yes"/>
      <point x="432" y="0"/>
      <point x="470" y="40"/>
      <point x="470" y="190" type="curve" smooth="yes"/>
      <point x="470" y="197" type="line" smooth="yes"/>
      <point x="470" y="335"/>
      <point x="432" y="375"/>
      <point x="294" y="375" type="curve" smooth="yes"/>
      <point x="105" y="375" type="line"/>
      <point x="105" y="315" type="line"/>
      <point x="294" y="315" type="line" smooth="yes"/>
      <point x="435" y="315"/>
      <point x="460" y="299"/>
      <point x="460" y="211" type="curve" smooth="yes"/>
      <point x="460" y="176" type="line" smooth="yes"/>
      <point x="460" y="89"/>
      <point x="435" y="74"/>
      <point x="294" y="74" type="curve" smooth="yes"/>
      <point x="105" y="74" type="line"/>
      <point x="110" y="43" type="line"/>
      <point x="110" y="645" type="line"/>
      <point x="105" y="614" type="line"/>
      <point x="280" y="614" type="line" smooth="yes"/>
      <point x="421" y="614"/>
      <point x="446" y="600"/>
      <point x="446" y="518" type="curve" smooth="yes"/>
      <point x="446" y="483" type="line" smooth="yes"/>
      <point x="446" y="400"/>
      <point x="421" y="385"/>
      <point x="280" y="385" type="curve" smooth="yes"/>
      <point x="105" y="385" type="line"/>
      <point x="105" y="325" type="line"/>
      <point x="280" y="325" type="line" smooth="yes"/>
      <point x="418" y="325"/>
      <point x="456" y="364"/>
      <point x="456" y="497" type="curve" smooth="yes"/>
      <point x="456" y="504" type="line" smooth="yes"/>
      <point x="456" y="649"/>
      <point x="418" y="688"/>
      <point x="280" y="688" type="curve" smooth="yes"/>
      <point x="100" y="688" type="line"/>
    </contour>
  </outline>
</glyph>
<glyph name="C" format="2">
  <advance width="501"/>
  <unicode hex="0043"/>
  <anchor x="248" y="0" name="bottom"/>
  <anchor x="248" y="688" name="top"/>
  <outline>
    <contour>
      <point x="264" y="-8" type="curve" smooth="yes"/>
      <point x="314" y="-8"/>
      <point x="372" y="-3"/>
      <point x="406" y="5" type="curve"/>
      <point x="406" y="76" type="line"/>
      <point x="373" y="70"/>
      <point x="317" y="66"/>
      <point x="264" y="66" type="curve" smooth="yes"/>
      <point x="107" y="66"/>
      <point x="86" y="95"/>
      <point x="86" y="310" type="curve" smooth="yes"/>
      <point x="86" y="378" type="line" smooth="yes"/>
      <point x="86" y="593"/>
      <point x="107" y="622"/>
      <point x="264" y="622" type="curve" smooth="yes"/>
      <point x="313" y="622"/>
      <point x="364" y="619"/>
      <point x="402" y="612" type="curve"/>
      <point x="402" y="681" type="line"/>
      <point x="369" y="690"/>
      <point x="312" y="696"/>
      <point x="264" y="696" type="curve" smooth="yes"/>
      <point x="104" y="696"/>
      <point x="76" y="644"/>
      <point x="76" y="349" type="curve" smooth="yes"/>
      <point x="76" y="339" type="line" smooth="yes"/>
      <point x="76" y="44"/>
      <point x="104" y="-8"/>
    </contour>
  </outline>
</glyph>
<glyph name="D" format="2">
  <advance width="536"/>
  <unicode hex="0044"/>
  <anchor x="268" y="0" name="bottom"/>
  <anchor x="134" y="344" name="center"/>
  <anchor x="268" y="688" name="top"/>
  <outline>
    <contour>
      <point x="100" y="0" type="line"/>
      <point x="218" y="0" type="line" smooth="yes"/>
      <point x="423" y="0"/>
      <point x="460" y="51"/>
      <point x="460" y="339" type="curve" smooth="yes"/>
      <point x="460" y="349" type="line" smooth="yes"/>
      <point x="460" y="637"/>
      <point x="423" y="688"/>
      <point x="218" y="688" type="curve" smooth="yes"/>
      <point x="100" y="688" type="line"/>
    </contour>
    <contour>
      <point x="110" y="37" type="line"/>
      <point x="110" y="651" type="line"/>
      <point x="105" y="614" type="line"/>
      <point x="218" y="614" type="line" smooth="yes"/>
      <point x="422" y="614"/>
      <point x="450" y="586"/>
      <point x="450" y="377" type="curve" smooth="yes"/>
      <point x="450" y="311" type="line" smooth="yes"/>
      <point x="450" y="102"/>
      <point x="422" y="74"/>
      <point x="218" y="74" type="curve" smooth="yes"/>
      <point x="105" y="74" type="line"/>
    </contour>
  </outline>
</glyph>
<glyph name="E" format="2">
  <advance width="495"/>
  <unicode hex="0045"/>
  <anchor x="252" y="0" name="bottom"/>
  <anchor x="453" y="10" name="ogonek"/>
  <anchor x="252" y="688" name="top"/>
  <anchor x="20" y="688" name="topleft"/>
  <outline>
    <contour>
      <point x="105" y="385" type="line"/>
      <point x="105" y="311" type="line"/>
      <point x="398" y="311" type="line"/>
      <point x="398" y="385" type="line"/>
    </contour>
    <contour>
      <point x="110" y="37" type="line"/>
      <point x="110" y="651" type="line"/>
      <point x="105" y="614" type="line"/>
      <point x="445" y="614" type="line"/>
      <point x="445" y="688" type="line"/>
      <point x="100" y="688" type="line"/>
      <point x="100" y="0" type="line"/>
      <point x="445" y="0" type="line"/>
      <point x="445" y="74" type="line"/>
      <point x="105" y="74" type="line"/>
    </contour>
  </outline>
</glyph>
<glyph name="F" format="2">
  <advance width="475"/>
  <unicode hex="0046"/>
  <anchor x="242" y="0" name="bottom"/>
  <anchor x="242" y="688" name="top"/>
  <outline>
    <contour>
      <point x="105" y="365" type="line"/>
      <point x="105" y="291" type="line"/>
      <point x="388" y="291" type="line"/>
      <point x="388" y="365" type="line"/>
    </contour>
    <contour>
      <point x="110" y="0" type="line"/>
      <point x="110" y="651" type="line"/>
      <point x="105" y="614" type="line"/>
      <point x="435" y="614" type="line"/>
      <point x="435" y="688" type="line"/>
      <point x="100" y="688" type="line"/>
      <point x="100" y="0" type="line"/>
    </contour>
  </outline>
</glyph>
<glyph name="G" format="2">
  <advance width="535"/>
  <unicode hex="0047"/>
  <anchor x="268" y="0" name="bottom"/>
  <anchor x="268" y="688" name="top"/>
  <outline>
    <contour>
      <point x="282" y="-8" type="curve" smooth="yes"/>
      <point x="337" y="-8"/>
      <point x="402" y="-3"/>
      <point x="440" y="5" type="curve"/>
      <point x="440" y="370" type="line"/>
      <point x="273" y="370" type="line"/>
      <point x="273" y="300" type="line"/>
      <point x="430" y="300" type="line"/>
      <point x="430" y="75" type="line"/>
      <point x="396" y="70"/>
      <point x="338" y="66"/>
      <point x="282" y="66" type="curve" smooth="yes"/>
      <point x="109" y="66"/>
      <point x="86" y="95"/>
      <point x="86" y="310" type="curve" smooth="yes"/>
      <point x="86" y="378" type="line" smooth="yes"/>
      <point x="86" y="593"/>
      <point x="109" y="622"/>
      <point x="282" y="622" type="curve" smooth="yes"/>
      <point x="339" y="622"/>
      <point x="395" y="619"/>
      <point x="438" y="612" type="curve"/>
      <point x="438" y="681" type="line"/>
      <point x="401" y="690"/>
      <point x="336" y="696"/>
      <point x="282" y="696" type="curve" smooth="yes"/>
      <point x="107" y="696"/>
      <point x="76" y="644"/>
      <point x="76" y="349" type="curve" smooth="yes"/>
      <point x="76" y="339" type="line" smooth="yes"/>
      <point x="76" y="44"/>
      <point x="107" y="-8"/>
    </contour>
  </outline>
</glyph>
<glyph name="H" format="2">
  <advance width="570"/>
  <unicode hex="0048"/>
  <anchor x="285" y="0" name="bottom"/>
  <anchor x="285" y="550" name="center"/>
  <anchor x="285" y="688" name="top"/>
  <anchor x="20" y="688" name="topleft"/>
  <outline>
    <contour>
      <point x="100" y="0" type="line"/>
      <point x="110" y="0" type="line"/>
      <point x="110" y="347" type="line"/>
      <point x="104" y="310" type="line"/>
      <point x="466" y="310" type="line"/>
      <point x="460" y="347" type="line"/>
      <point x="460" y="0" type="line"/>
      <point x="470" y="0" type="line"/>
      <point x="470" y="688" type="line"/>
      <point x="460" y="688" type="line"/>
      <point x="460" y="347" type="line"/>
      <point x="466" y="384" type="line"/>
      <point x="104" y="384" type="line"/>
      <point x="110" y="347" type="line"/>
      <point x="110" y="688" type="line"/>
      <point x="100" y="688" type="line"/>
    </contour>
  </outline>
</glyph>
<glyph name="I" format="2">
  <advance width="210"/>
  <unicode hex="0049"/>
  <anchor x="105" y="0" name="bottom"/>
  <anchor x="189" y="10" name="ogonek"/>
  <anchor x="105" y="688" name="top"/>
  <anchor x="20" y="688" name="topleft"/>
  <outline>
    <contour>
      <point x="100" y="0" type="line"/>
      <point x="110" y="0" type="line"/>
      <point x="110" y="688" type="line"/>
      <point x="100" y="688" type="line"/>
    </contour>
  </outline>
</glyph>
<glyph name="J" format="2">
  <advance width="212"/>
  <unicode hex="004A"/>
  <anchor x="106" y="0" name="bottom"/>
  <anchor x="106" y="688" name="top"/>
  <outline>
    <contour>
      <point x="112" y="688" type="line"/>
      <point x="100" y="688" type="line"/>
      <point x="100" y="141" type="line" smooth="yes"/>
      <point x="100" y="78"/>
      <point x="85" y="66"/>
      <point x="5" y="66" type="curve"/>
      <point x="5" y="-4" type="line"/>
      <point x="89" y="-4"/>
      <point x="112" y="29"/>
      <point x="112" y="148" type="curve" smooth="yes"/>
    </contour>
  </outline>
</glyph>
<glyph name="K" format="2">
  <advance width="544"/>
  <unicode hex="004B"/>
  <anchor x="202" y="0" name="bottom"/>
  <anchor x="202" y="688" name="top"/>
  <outline>
    <contour>
      <point x="105" y="313" type="line"/>
      <point x="303" y="313" type="line"/>
      <point x="522" y="0" type="line"/>
      <point x="534" y="0" type="line"/>
      <point x="289" y="350" type="line"/>
      <point x="524" y="688" type="line"/>
      <point x="426" y="688" type="line"/>
      <point x="218" y="387" type="line"/>
      <point x="105" y="387" type="line"/>
    </contour>
    <contour>
      <point x="100" y="0" type="line"/>
      <point x="110" y="0" type="line"/>
      <point x="110" y="688" type="line"/>
      <point x="100" y="688" type="line"/>
    </contour>
  </outline>
</glyph>
<glyph name="L" format="2">
  <advance width="435"/>
  <unicode hex="004C"/>
  <anchor x="227" y="0" name="bottom"/>
  <anchor x="227" y="344" name="center"/>
  <anchor x="227" y="688" name="top"/>
  <anchor x="434" y="688" name="topright"/>
  <outline>
    <contour>
      <point x="100" y="0" type="line"/>
      <point x="415" y="0" type="line"/>
      <point x="415" y="74" type="line"/>
      <point x="105" y="74" type="line"/>
      <point x="110" y="37" type="line"/>
      <point x="110" y="688" type="line"/>
      <point x="100" y="688" type="line"/>
    </contour>
  </outline>
</glyph>
<glyph name="M" format="2">
  <advance width="744"/>
  <unicode hex="004D"/>
  <guideline x="379" y="61" angle="288.26869999999997" name=""/>
  <outline>
    <contour>
      <point x="100" y="0" type="line"/>
      <point x="182" y="0" type="line"/>
      <point x="182" y="609" type="line"/>
      <point x="389" y="0" type="line"/>
      <point x="441" y="0" type="line"/>
      <point x="634" y="609" type="line"/>
      <point x="634" y="0" type="line"/>
      <point x="644" y="0" type="line"/>
      <point x="644" y="688" type="line"/>
      <point x="578" y="688" type="line"/>
      <point x="379" y="61" type="line"/>
      <point x="166" y="688" type="line"/>
      <point x="100" y="688" type="line"/>
    </contour>
  </outline>
</glyph>
<glyph name="N" format="2">
  <advance width="714"/>
  <unicode hex="004E"/>
  <anchor x="357" y="0" name="bottom"/>
  <anchor x="357" y="688" name="top"/>
  <outline>
    <contour>
      <point x="100" y="0" type="line"/>
      <point x="182" y="0" type="line"/>
      <point x="182" y="608" type="line"/>
      <point x="571" y="0" type="line"/>
      <point x="614" y="0" type="line"/>
      <point x="614" y="688" type="line"/>
      <point x="532" y="688" type="line"/>
      <point x="532" y="80" type="line"/>
      <point x="143" y="688" type="line"/>
      <point x="100" y="688" type="line"/>
    </contour>
  </outline>
</glyph>
<glyph name="O" format="2">
  <advance width="564"/>
  <unicode hex="004F"/>
  <anchor x="282" y="-2" name="bottom"/>
  <anchor x="282" y="344" name="center"/>
  <anchor x="508" y="10" name="ogonek"/>
  <anchor x="282" y="688" name="top"/>
  <anchor x="20" y="688" name="topleft"/>
  <anchor x="544" y="688" name="topright"/>
  <outline>
    <contour>
      <point x="282" y="-8" type="curve" smooth="yes"/>
      <point x="457" y="-8"/>
      <point x="488" y="44"/>
      <point x="488" y="339" type="curve" smooth="yes"/>
      <point x="488" y="349" type="line" smooth="yes"/>
      <point x="488" y="644"/>
      <point x="457" y="696"/>
      <point x="282" y="696" type="curve" smooth="yes"/>
      <point x="107" y="696"/>
      <point x="76" y="644"/>
      <point x="76" y="349" type="curve" smooth="yes"/>
      <point x="76" y="339" type="line" smooth="yes"/>
      <point x="76" y="44"/>
      <point x="107" y="-8"/>
    </contour>
    <contour>
      <point x="282" y="66" type="curve" smooth="yes"/>
      <point x="110" y="66"/>
      <point x="86" y="95"/>
      <point x="86" y="310" type="curve" smooth="yes"/>
      <point x="86" y="378" type="line" smooth="yes"/>
      <point x="86" y="593"/>
      <point x="110" y="622"/>
      <point x="282" y="622" type="curve" smooth="yes"/>
      <point x="454" y="622"/>
      <point x="478" y="593"/>
      <point x="478" y="378" type="curve" smooth="yes"/>
      <point x="478" y="310" type="line" smooth="yes"/>
      <point x="478" y="95"/>
      <point x="454" y="66"/>
    </contour>
  </outline>
</glyph>
<glyph name="P" format="2">
  <advance width="441"/>
  <unicode hex="0050"/>
  <anchor x="221" y="0" name="bottom"/>
  <anchor x="221" y="688" name="top"/>
  <outline>
    <contour>
      <point x="100" y="0" type="line"/>
      <point x="110" y="0" type="line"/>
      <point x="110" y="645" type="line"/>
      <point x="106" y="614" type="line"/>
      <point x="235" y="614" type="line" smooth="yes"/>
      <point x="381" y="614"/>
      <point x="401" y="598"/>
      <point x="401" y="485" type="curve" smooth="yes"/>
      <point x="401" y="450" type="line" smooth="yes"/>
      <point x="401" y="337"/>
      <point x="381" y="321"/>
      <point x="235" y="321" type="curve" smooth="yes"/>
      <point x="105" y="321" type="line"/>
      <point x="105" y="247" type="line"/>
      <point x="235" y="247" type="line" smooth="yes"/>
      <point x="385" y="247"/>
      <point x="411" y="280"/>
      <point x="411" y="464" type="curve" smooth="yes"/>
      <point x="411" y="471" type="line" smooth="yes"/>
      <point x="411" y="655"/>
      <point x="385" y="688"/>
      <point x="235" y="688" type="curve" smooth="yes"/>
      <point x="100" y="688" type="line"/>
    </contour>
  </outline>
</glyph>
<glyph name="R" format="2">
  <advance width="486"/>
  <unicode hex="0052"/>
  <anchor x="243" y="0" name="bottom"/>
  <anchor x="243" y="688" name="top"/>
  <outline>
    <contour>
      <point x="100" y="0" type="line"/>
      <point x="110" y="0" type="line"/>
      <point x="110" y="645" type="line"/>
      <point x="106" y="614" type="line"/>
      <point x="245" y="614" type="line" smooth="yes"/>
      <point x="391" y="614"/>
      <point x="411" y="599"/>
      <point x="411" y="495" type="curve" smooth="yes"/>
      <point x="411" y="460" type="line" smooth="yes"/>
      <point x="411" y="356"/>
      <point x="391" y="341"/>
      <point x="245" y="341" type="curve" smooth="yes"/>
      <point x="105" y="341" type="line"/>
      <point x="105" y="267" type="line"/>
      <point x="245" y="267" type="line" smooth="yes"/>
      <point x="394" y="267"/>
      <point x="421" y="298"/>
      <point x="421" y="474" type="curve" smooth="yes"/>
      <point x="421" y="481" type="line" smooth="yes"/>
      <point x="421" y="657"/>
      <point x="395" y="688"/>
      <point x="245" y="688" type="curve" smooth="yes"/>
      <point x="100" y="688" type="line"/>
    </contour>
    <contour>
      <point x="408" y="0" type="line"/>
      <point x="421" y="0" type="line"/>
      <point x="307" y="282" type="line"/>
      <point x="292" y="288" type="line"/>
    </contour>
  </outline>
</glyph>
<glyph name="S" format="2">
  <advance width="492"/>
  <unicode hex="0053"/>
  <anchor x="246" y="0" name="bottom"/>
  <anchor x="246" y="688" name="top"/>
  <outline>
    <contour>
      <point x="251" y="-8" type="curve" smooth="yes"/>
      <point x="381" y="-8"/>
      <point x="421" y="41"/>
      <point x="421" y="198" type="curve" smooth="yes"/>
      <point x="421" y="314"/>
      <point x="406" y="335"/>
      <point x="320" y="344" type="curve" smooth="yes"/>
      <point x="180" y="359" type="line" smooth="yes"/>
      <point x="96" y="369"/>
      <point x="81" y="389"/>
      <point x="81" y="494" type="curve" smooth="yes"/>
      <point x="81" y="601"/>
      <point x="106" y="622"/>
      <point x="237" y="622" type="curve" smooth="yes"/>
      <point x="283" y="622"/>
      <point x="345" y="615"/>
      <point x="393" y="605" type="curve"/>
      <point x="393" y="677" type="line"/>
      <point x="342" y="689"/>
      <point x="283" y="696"/>
      <point x="241" y="696" type="curve" smooth="yes"/>
      <point x="112" y="696"/>
      <point x="71" y="648"/>
      <point x="71" y="496" type="curve" smooth="yes"/>
      <point x="71" y="387"/>
      <point x="90" y="359"/>
      <point x="170" y="350" type="curve" smooth="yes"/>
      <point x="310" y="335" type="line" smooth="yes"/>
      <point x="400" y="324"/>
      <point x="411" y="309"/>
      <point x="411" y="198" type="curve" smooth="yes"/>
      <point x="411" y="88"/>
      <point x="384" y="66"/>
      <point x="253" y="66" type="curve" smooth="yes"/>
      <point x="201" y="66"/>
      <point x="131" y="73"/>
      <point x="77" y="83" type="curve"/>
      <point x="77" y="11" type="line"/>
      <point x="145" y="-1"/>
      <point x="212" y="-8"/>
    </contour>
  </outline>
</glyph>
<glyph name="T" format="2">
  <advance width="414"/>
  <unicode hex="0054"/>
  <anchor x="207" y="0" name="bottom"/>
  <anchor x="207" y="344" name="center"/>
  <anchor x="207" y="688" name="top"/>
  <outline>
    <contour>
      <point x="202" y="0" type="line"/>
      <point x="212" y="0" type="line"/>
      <point x="212" y="649" type="line"/>
      <point x="208" y="612" type="line"/>
      <point x="404" y="612" type="line"/>
      <point x="404" y="688" type="line"/>
      <point x="10" y="688" type="line"/>
      <point x="10" y="612" type="line"/>
      <point x="206" y="612" type="line"/>
      <point x="202" y="649" type="line"/>
    </contour>
  </outline>
</glyph>
<glyph name="U" format="2">
  <advance width="632"/>
  <unicode hex="0055"/>
  <anchor x="316" y="0" name="bottom"/>
  <anchor x="569" y="10" name="ogonek"/>
  <anchor x="316" y="688" name="top"/>
  <anchor x="612" y="688" name="topright"/>
  <outline>
    <contour>
      <point x="306" y="-8" type="curve" smooth="yes"/>
      <point x="486" y="-8"/>
      <point x="537" y="65"/>
      <point x="537" y="326" type="curve" smooth="yes"/>
      <point x="537" y="688" type="line"/>
      <point x="455" y="688" type="line"/>
      <point x="455" y="297" type="line" smooth="yes"/>
      <point x="455" y="98"/>
      <point x="432" y="68"/>
      <point x="280" y="68" type="curve" smooth="yes"/>
      <point x="132" y="68"/>
      <point x="105" y="103"/>
      <point x="105" y="297" type="curve" smooth="yes"/>
      <point x="105" y="688" type="line"/>
      <point x="95" y="688" type="line"/>
      <point x="95" y="301" type="line" smooth="yes"/>
      <point x="95" y="49"/>
      <point x="134" y="-8"/>
    </contour>
  </outline>
</glyph>
<glyph name="V" format="2">
  <advance width="508"/>
  <unicode hex="0056"/>
  <outline>
    <contour>
      <point x="226" y="0" type="line"/>
      <point x="288" y="0" type="line"/>
      <point x="498" y="688" type="line"/>
      <point x="412" y="688" type="line"/>
      <point x="221" y="50" type="line"/>
      <point x="21" y="688" type="line"/>
      <point x="10" y="688" type="line"/>
    </contour>
  </outline>
</glyph>
<glyph name="W" format="2">
  <advance width="660"/>
  <unicode hex="0057"/>
  <outline>
    <contour>
      <point x="139" y="0" type="line"/>
      <point x="208" y="0" type="line"/>
      <point x="329" y="624" type="line"/>
      <point x="452" y="0" type="line"/>
      <point x="521" y="0" type="line"/>
      <point x="650" y="688" type="line"/>
      <point x="568" y="688" type="line"/>
      <point x="451" y="58" type="line"/>
      <point x="326" y="688" type="line"/>
      <point x="261" y="688" type="line"/>
      <point x="138" y="58" type="line"/>
      <point x="20" y="688" type="line"/>
      <point x="10" y="688" type="line"/>
    </contour>
  </outline>
</glyph>
<glyph name="X" format="2">
  <advance width="525"/>
  <unicode hex="0058"/>
  <anchor x="296" y="0" name="bottom"/>
  <anchor x="296" y="510" name="top"/>
  <outline>
    <contour>
      <point x="493" y="0" type="line"/>
      <point x="505" y="0" type="line"/>
      <point x="42" y="688" type="line"/>
      <point x="30" y="688" type="line"/>
    </contour>
    <contour>
      <point x="20" y="0" type="line"/>
      <point x="114" y="0" type="line"/>
      <point x="495" y="688" type="line"/>
      <point x="401" y="688" type="line"/>
    </contour>
  </outline>
</glyph>
<glyph name="Y" format="2">
  <advance width="484"/>
  <unicode hex="0059"/>
  <anchor x="246" y="0" name="bottom"/>
  <anchor x="246" y="688" name="top"/>
  <anchor x="-47" y="688" name="topleft"/>
  <outline>
    <contour>
      <point x="237" y="0" type="line"/>
      <point x="247" y="0" type="line"/>
      <point x="247" y="312" type="line"/>
      <point x="243" y="259" type="line"/>
      <point x="474" y="688" type="line"/>
      <point x="380" y="688" type="line"/>
      <point x="204" y="349" type="line"/>
      <point x="21" y="688" type="line"/>
      <point x="10" y="688" type="line"/>
      <point x="241" y="259" type="line"/>
      <point x="237" y="312" type="line"/>
    </contour>
  </outline>
</glyph>
<glyph name="Z" format="2">
  <advance width="539"/>
  <unicode hex="005A"/>
  <anchor x="157" y="0" name="bottom"/>
  <anchor x="157" y="344" name="center"/>
  <anchor x="157" y="688" name="top"/>
  <outline>
    <contour>
      <point x="50" y="0" type="line"/>
      <point x="489" y="0" type="line"/>
      <point x="489" y="10" type="line"/>
      <point x="139" y="10" type="line"/>
      <point x="482" y="679" type="line"/>
      <point x="482" y="688" type="line"/>
      <point x="63" y="688" type="line"/>
      <point x="63" y="678" type="line"/>
      <point x="393" y="678" type="line"/>
      <point x="50" y="9" type="line"/>
    </contour>
  </outline>
</glyph>
<glyph name="backslash" format="2">
  <advance width="358.97826"/>
  <unicode hex="005C"/>
  <outline>
    <contour>
      <point x="287.196" y="-55" type="line"/>
      <point x="361.696" y="-55" type="line"/>
      <point x="71.696" y="743" type="line"/>
      <point x="-3.804" y="743" type="line"/>
    </contour>
  </outline>
</glyph>
<glyph name="a" format="2">
  <advance width="442"/>
  <unicode hex="0061"/>
  <anchor x="221" y="0" name="bottom"/>
  <anchor x="455" y="10" name="ogonek"/>
  <anchor x="221" y="510" name="top"/>
  <outline>
    <contour>
      <point x="197" y="-8" type="curve" smooth="yes"/>
      <point x="272" y="-8"/>
      <point x="316" y="19"/>
      <point x="335" y="78" type="curve"/>
      <point x="339" y="78" type="line"/>
      <point x="342" y="0" type="line"/>
      <point x="347" y="0" type="line"/>
      <point x="347" y="297" type="line" smooth="yes"/>
      <point x="347" y="479"/>
      <point x="323" y="518"/>
      <point x="213" y="518" type="curve" smooth="yes"/>
      <point x="179" y="518"/>
      <point x="139" y="513"/>
      <point x="89" y="503" type="curve"/>
      <point x="89" y="435" type="line"/>
      <point x="127" y="444"/>
      <point x="166" y="448"/>
      <point x="213" y="448" type="curve" smooth="yes"/>
      <point x="324" y="448"/>
      <point x="337" y="430"/>
      <point x="337" y="279" type="curve" smooth="yes"/>
      <point x="337" y="241" type="line" smooth="yes"/>
      <point x="337" y="98"/>
      <point x="307" y="62"/>
      <point x="188" y="62" type="curve" smooth="yes"/>
      <point x="95" y="62"/>
      <point x="73" y="81"/>
      <point x="73" y="164" type="curve" smooth="yes"/>
      <point x="73" y="241"/>
      <point x="100" y="265"/>
      <point x="186" y="265" type="curve" smooth="yes"/>
      <point x="342" y="265" type="line"/>
      <point x="342" y="275" type="line"/>
      <point x="184" y="275" type="line" smooth="yes"/>
      <point x="94" y="275"/>
      <point x="63" y="246"/>
      <point x="63" y="162" type="curve" smooth="yes"/>
      <point x="63" y="38"/>
      <point x="99" y="-8"/>
    </contour>
  </outline>
</glyph>
<glyph name="b" format="2">
  <advance width="475"/>
  <unicode hex="0062"/>
  <anchor x="238" y="0" name="bottom"/>
  <anchor x="83" y="594" name="center"/>
  <anchor x="238" y="510" name="top"/>
  <outline>
    <contour>
      <point x="276" y="-8" type="curve" smooth="yes"/>
      <point x="386" y="-8"/>
      <point x="405" y="31"/>
      <point x="405" y="251" type="curve" smooth="yes"/>
      <point x="405" y="259" type="line" smooth="yes"/>
      <point x="405" y="479"/>
      <point x="386" y="518"/>
      <point x="276" y="518" type="curve" smooth="yes"/>
      <point x="187" y="518"/>
      <point x="138" y="490"/>
      <point x="114" y="427" type="curve"/>
      <point x="110" y="427" type="line"/>
      <point x="110" y="743" type="line"/>
      <point x="100" y="743" type="line"/>
      <point x="100" y="0" type="line"/>
      <point x="107" y="0" type="line"/>
      <point x="110" y="83" type="line"/>
      <point x="114" y="83" type="line"/>
      <point x="138" y="20"/>
      <point x="187" y="-8"/>
    </contour>
    <contour>
      <point x="272" y="62" type="curve" smooth="yes"/>
      <point x="137" y="62"/>
      <point x="110" y="95"/>
      <point x="110" y="244" type="curve" smooth="yes"/>
      <point x="110" y="266" type="line" smooth="yes"/>
      <point x="110" y="415"/>
      <point x="137" y="448"/>
      <point x="272" y="448" type="curve" smooth="yes"/>
      <point x="364" y="448"/>
      <point x="395" y="413"/>
      <point x="395" y="307" type="curve" smooth="yes"/>
      <point x="395" y="203" type="line" smooth="yes"/>
      <point x="395" y="97"/>
      <point x="364" y="62"/>
    </contour>
  </outline>
</glyph>
<glyph name="d" format="2">
  <advance width="475"/>
  <unicode hex="0064"/>
  <anchor x="310" y="0" name="bottom"/>
  <anchor x="464" y="594" name="center"/>
  <anchor x="310" y="510" name="top"/>
  <anchor x="519" y="743" name="topright"/>
  <outline>
    <contour>
      <point x="199" y="-8" type="curve" smooth="yes"/>
      <point x="288" y="-8"/>
      <point x="337" y="20"/>
      <point x="361" y="83" type="curve"/>
      <point x="365" y="83" type="line"/>
      <point x="368" y="0" type="line"/>
      <point x="375" y="0" type="line"/>
      <point x="375" y="743" type="line"/>
      <point x="365" y="743" type="line"/>
      <point x="365" y="427" type="line"/>
      <point x="361" y="427" type="line"/>
      <point x="337" y="490"/>
      <point x="288" y="518"/>
      <point x="199" y="518" type="curve" smooth="yes"/>
      <point x="89" y="518"/>
      <point x="70" y="479"/>
      <point x="70" y="259" type="curve" smooth="yes"/>
      <point x="70" y="251" type="line" smooth="yes"/>
      <point x="70" y="31"/>
      <point x="89" y="-8"/>
    </contour>
    <contour>
      <point x="203" y="62" type="curve" smooth="yes"/>
      <point x="111" y="62"/>
      <point x="80" y="97"/>
      <point x="80" y="203" type="curve" smooth="yes"/>
      <point x="80" y="307" type="line" smooth="yes"/>
      <point x="80" y="413"/>
      <point x="111" y="448"/>
      <point x="203" y="448" type="curve" smooth="yes"/>
      <point x="338" y="448"/>
      <point x="365" y="415"/>
      <point x="365" y="266" type="curve" smooth="yes"/>
      <point x="365" y="244" type="line" smooth="yes"/>
      <point x="365" y="95"/>
      <point x="338" y="62"/>
    </contour>
  </outline>
</glyph>
<glyph name="e" format="2">
  <advance width="422"/>
  <unicode hex="0065"/>
  <anchor x="211" y="0" name="bottom"/>
  <anchor x="437" y="10" name="ogonek"/>
  <anchor x="211" y="510" name="top"/>
  <outline>
    <contour>
      <point x="217" y="-8" type="curve" smooth="yes"/>
      <point x="263" y="-8"/>
      <point x="316" y="0"/>
      <point x="346" y="12" type="curve"/>
      <point x="346" y="80" type="line"/>
      <point x="311" y="69"/>
      <point x="258" y="62"/>
      <point x="217" y="62" type="curve" smooth="yes"/>
      <point x="89" y="62"/>
      <point x="80" y="74"/>
      <point x="80" y="231" type="curve" smooth="yes"/>
      <point x="80" y="279" type="line" smooth="yes"/>
      <point x="80" y="436"/>
      <point x="89" y="448"/>
      <point x="217" y="448" type="curve" smooth="yes"/>
      <point x="330" y="448"/>
      <point x="349" y="424"/>
      <point x="349" y="279" type="curve" smooth="yes"/>
      <point x="349" y="251" type="line"/>
      <point x="354" y="256" type="line"/>
      <point x="75" y="256" type="line"/>
      <point x="75" y="246" type="line"/>
      <point x="359" y="246" type="line"/>
      <point x="359" y="259" type="line" smooth="yes"/>
      <point x="359" y="479"/>
      <point x="338" y="518"/>
      <point x="217" y="518" type="curve" smooth="yes"/>
      <point x="92" y="518"/>
      <point x="70" y="479"/>
      <point x="70" y="259" type="curve" smooth="yes"/>
      <point x="70" y="251" type="line" smooth="yes"/>
      <point x="70" y="31"/>
      <point x="92" y="-8"/>
    </contour>
  </outline>
</glyph>
<glyph name="f" format="2">
  <advance width="234"/>
  <unicode hex="0066"/>
  <anchor x="126" y="0" name="bottom"/>
  <anchor x="126" y="743" name="top"/>
  <outline>
    <contour>
      <point x="105" y="0" type="line"/>
      <point x="115" y="0" type="line"/>
      <point x="115" y="598" type="line" smooth="yes"/>
      <point x="115" y="661"/>
      <point x="133" y="673"/>
      <point x="229" y="673" type="curve"/>
      <point x="229" y="743" type="line"/>
      <point x="132" y="743"/>
      <point x="105" y="710"/>
      <point x="105" y="591" type="curve" smooth="yes"/>
    </contour>
    <contour>
      <point x="20" y="440" type="line"/>
      <point x="108" y="440" type="line"/>
      <point x="108" y="510" type="line"/>
      <point x="20" y="510" type="line"/>
    </contour>
    <contour>
      <point x="112" y="440" type="line"/>
      <point x="229" y="440" type="line"/>
      <point x="229" y="510" type="line"/>
      <point x="112" y="510" type="line"/>
    </contour>
  </outline>
</glyph>
<glyph name="g" format="2">
  <advance width="475"/>
  <unicode hex="0067"/>
  <anchor x="85" y="-200" name="bottom"/>
  <anchor x="392" y="-84" name="center"/>
  <anchor x="85" y="510" name="top"/>
  <outline>
    <contour>
      <point x="241" y="-208" type="curve" smooth="yes"/>
      <point x="351" y="-208"/>
      <point x="375" y="-169"/>
      <point x="375" y="13" type="curve" smooth="yes"/>
      <point x="375" y="510" type="line"/>
      <point x="368" y="510" type="line"/>
      <point x="365" y="427" type="line"/>
      <point x="361" y="427" type="line"/>
      <point x="337" y="490"/>
      <point x="288" y="518"/>
      <point x="199" y="518" type="curve" smooth="yes"/>
      <point x="89" y="518"/>
      <point x="70" y="479"/>
      <point x="70" y="259" type="curve" smooth="yes"/>
      <point x="70" y="251" type="line" smooth="yes"/>
      <point x="70" y="31"/>
      <point x="89" y="-8"/>
      <point x="199" y="-8" type="curve" smooth="yes"/>
      <point x="288" y="-8"/>
      <point x="337" y="20"/>
      <point x="361" y="83" type="curve"/>
      <point x="365" y="83" type="line"/>
      <point x="365" y="31" type="line" smooth="yes"/>
      <point x="365" y="-120"/>
      <point x="352" y="-138"/>
      <point x="241" y="-138" type="curve" smooth="yes"/>
      <point x="194" y="-138"/>
      <point x="155" y="-134"/>
      <point x="117" y="-125" type="curve"/>
      <point x="117" y="-193" type="line"/>
      <point x="167" y="-203"/>
      <point x="207" y="-208"/>
    </contour>
    <contour>
      <point x="203" y="62" type="curve" smooth="yes"/>
      <point x="109" y="62"/>
      <point x="80" y="95"/>
      <point x="80" y="203" type="curve" smooth="yes"/>
      <point x="80" y="307" type="line" smooth="yes"/>
      <point x="80" y="416"/>
      <point x="108" y="448"/>
      <point x="203" y="448" type="curve" smooth="yes"/>
      <point x="337" y="448"/>
      <point x="365" y="416"/>
      <point x="365" y="266" type="curve" smooth="yes"/>
      <point x="365" y="244" type="line" smooth="yes"/>
      <point x="365" y="94"/>
      <point x="337" y="62"/>
    </contour>
  </outline>
</glyph>
<glyph name="h" format="2">
  <advance width="479"/>
  <unicode hex="0068"/>
  <anchor x="240" y="0" name="bottom"/>
  <anchor x="240" y="510" name="top"/>
  <outline>
    <contour>
      <point x="100" y="0" type="line"/>
      <point x="110" y="0" type="line"/>
      <point x="110" y="313" type="line" smooth="yes"/>
      <point x="110" y="416"/>
      <point x="146" y="448"/>
      <point x="261" y="448" type="curve" smooth="yes"/>
      <point x="350" y="448"/>
      <point x="374" y="428"/>
      <point x="374" y="352" type="curve" smooth="yes"/>
      <point x="374" y="0" type="line"/>
      <point x="384" y="0" type="line"/>
      <point x="384" y="353" type="line" smooth="yes"/>
      <point x="384" y="473"/>
      <point x="346" y="518"/>
      <point x="250" y="518" type="curve" smooth="yes"/>
      <point x="174" y="518"/>
      <point x="129" y="491"/>
      <point x="110" y="432" type="curve"/>
      <point x="110" y="743" type="line"/>
      <point x="100" y="743" type="line"/>
    </contour>
  </outline>
</glyph>
<glyph name="i" format="2">
  <advance width="210"/>
  <unicode hex="0069"/>
  <anchor x="105" y="0" name="bottom"/>
  <anchor x="110" y="0" name="ogonek"/>
  <anchor x="105" y="656" name="top"/>
  <outline>
    <contour>
      <point x="100" y="0" type="line"/>
      <point x="110" y="0" type="line"/>
      <point x="110" y="510" type="line"/>
      <point x="100" y="510" type="line"/>
    </contour>
    <contour>
      <point x="91" y="628" type="line"/>
      <point x="119" y="628" type="line"/>
      <point x="119" y="656" type="line"/>
      <point x="91" y="656" type="line"/>
    </contour>
  </outline>
</glyph>
<glyph name="j" format="2">
  <advance width="212"/>
  <unicode hex="006A"/>
  <anchor x="106" y="-200" name="bottom"/>
  <anchor x="106" y="656" name="top"/>
  <outline>
    <contour>
      <point x="112" y="510" type="line"/>
      <point x="100" y="510" type="line"/>
      <point x="100" y="-55" type="line" smooth="yes"/>
      <point x="100" y="-118"/>
      <point x="85" y="-130"/>
      <point x="5" y="-130" type="curve"/>
      <point x="5" y="-200" type="line"/>
      <point x="89" y="-200"/>
      <point x="112" y="-167"/>
      <point x="112" y="-48" type="curve" smooth="yes"/>
    </contour>
    <contour>
      <point x="92" y="628" type="line"/>
      <point x="120" y="628" type="line"/>
      <point x="120" y="656" type="line"/>
      <point x="92" y="656" type="line"/>
    </contour>
  </outline>
</glyph>
<glyph name="k" format="2">
  <advance width="435"/>
  <unicode hex="006B"/>
  <anchor x="195" y="0" name="bottom"/>
  <anchor x="195" y="510" name="top"/>
  <outline>
    <contour>
      <point x="110" y="225" type="line"/>
      <point x="262" y="225" type="line"/>
      <point x="408" y="0" type="line"/>
      <point x="420" y="0" type="line"/>
      <point x="251" y="260" type="line"/>
      <point x="417" y="510" type="line"/>
      <point x="323" y="510" type="line"/>
      <point x="180" y="295" type="line"/>
      <point x="110" y="295" type="line"/>
    </contour>
    <contour>
      <point x="100" y="0" type="line"/>
      <point x="110" y="0" type="line"/>
      <point x="110" y="743" type="line"/>
      <point x="100" y="743" type="line"/>
    </contour>
  </outline>
</glyph>
<glyph name="l" format="2">
  <advance width="210"/>
  <unicode hex="006C"/>
  <anchor x="105" y="0" name="bottom"/>
  <anchor x="105" y="372" name="center"/>
  <anchor x="105" y="743" name="top"/>
  <anchor x="110" y="743" name="topright"/>
  <outline>
    <contour>
      <point x="100" y="0" type="line"/>
      <point x="110" y="0" type="line"/>
      <point x="110" y="743" type="line"/>
      <point x="100" y="743" type="line"/>
    </contour>
  </outline>
</glyph>
<glyph name="m" format="2">
  <advance width="753"/>
  <unicode hex="006D"/>
  <anchor x="240" y="0" name="bottom"/>
  <anchor x="240" y="510" name="top"/>
  <outline>
    <contour>
      <point x="100" y="0" type="line"/>
      <point x="110" y="0" type="line"/>
      <point x="110" y="276" type="line" smooth="yes"/>
      <point x="110" y="417"/>
      <point x="138" y="448"/>
      <point x="260" y="448" type="curve" smooth="yes"/>
      <point x="361" y="448"/>
      <point x="374" y="432"/>
      <point x="374" y="317" type="curve" smooth="yes"/>
      <point x="374" y="0" type="line"/>
      <point x="384" y="0" type="line"/>
      <point x="384" y="276" type="line" smooth="yes"/>
      <point x="384" y="417"/>
      <point x="412" y="448"/>
      <point x="534" y="448" type="curve" smooth="yes"/>
      <point x="635" y="448"/>
      <point x="648" y="432"/>
      <point x="648" y="317" type="curve" smooth="yes"/>
      <point x="648" y="0" type="line"/>
      <point x="658" y="0" type="line"/>
      <point x="658" y="319" type="line" smooth="yes"/>
      <point x="658" y="473"/>
      <point x="632" y="518"/>
      <point x="541" y="518" type="curve" smooth="yes"/>
      <point x="451" y="518"/>
      <point x="402" y="491"/>
      <point x="377" y="437" type="curve"/>
      <point x="373" y="437" type="line"/>
      <point x="359" y="497"/>
      <point x="328" y="518"/>
      <point x="267" y="518" type="curve" smooth="yes"/>
      <point x="183" y="518"/>
      <point x="136" y="493"/>
      <point x="114" y="437" type="curve"/>
      <point x="110" y="437" type="line"/>
      <point x="107" y="510" type="line"/>
      <point x="100" y="510" type="line"/>
    </contour>
  </outline>
</glyph>
<glyph name="n" format="2">
  <advance width="479"/>
  <unicode hex="006E"/>
  <anchor x="240" y="0" name="bottom"/>
  <anchor x="240" y="510" name="top"/>
  <outline>
    <contour>
      <point x="100" y="0" type="line"/>
      <point x="110" y="0" type="line"/>
      <point x="110" y="313" type="line" smooth="yes"/>
      <point x="110" y="416"/>
      <point x="146" y="448"/>
      <point x="261" y="448" type="curve" smooth="yes"/>
      <point x="350" y="448"/>
      <point x="374" y="428"/>
      <point x="374" y="352" type="curve" smooth="yes"/>
      <point x="374" y="0" type="line"/>
      <point x="384" y="0" type="line"/>
      <point x="384" y="353" type="line" smooth="yes"/>
      <point x="384" y="473"/>
      <point x="346" y="518"/>
      <point x="250" y="518" type="curve" smooth="yes"/>
      <point x="175" y="518"/>
      <point x="131" y="491"/>
      <point x="112" y="432" type="curve"/>
      <point x="108" y="432" type="line"/>
      <point x="105" y="510" type="line"/>
      <point x="100" y="510" type="line"/>
    </contour>
  </outline>
</glyph>
<glyph name="o" format="2">
  <advance width="444"/>
  <unicode hex="006F"/>
  <anchor x="222" y="0" name="bottom"/>
  <anchor x="222" y="255" name="center"/>
  <anchor x="411" y="10" name="ogonek"/>
  <anchor x="222" y="510" name="top"/>
  <anchor x="443" y="510" name="topright"/>
  <outline>
    <contour>
      <point x="222" y="-8" type="curve" smooth="yes"/>
      <point x="352" y="-8"/>
      <point x="374" y="31"/>
      <point x="374" y="251" type="curve" smooth="yes"/>
      <point x="374" y="259" type="line" smooth="yes"/>
      <point x="374" y="479"/>
      <point x="352" y="518"/>
      <point x="222" y="518" type="curve" smooth="yes"/>
      <point x="92" y="518"/>
      <point x="70" y="479"/>
      <point x="70" y="259" type="curve" smooth="yes"/>
      <point x="70" y="251" type="line" smooth="yes"/>
      <point x="70" y="31"/>
      <point x="92" y="-8"/>
    </contour>
    <contour>
      <point x="222" y="62" type="curve" smooth="yes"/>
      <point x="90" y="62"/>
      <point x="80" y="75"/>
      <point x="80" y="228" type="curve" smooth="yes"/>
      <point x="80" y="282" type="line" smooth="yes"/>
      <point x="80" y="437"/>
      <point x="92" y="448"/>
      <point x="222" y="448" type="curve" smooth="yes"/>
      <point x="354" y="448"/>
      <point x="364" y="435"/>
      <point x="364" y="282" type="curve" smooth="yes"/>
      <point x="364" y="228" type="line" smooth="yes"/>
      <point x="364" y="75"/>
      <point x="354" y="62"/>
    </contour>
  </outline>
</glyph>
<glyph name="q" format="2">
  <advance width="475"/>
  <unicode hex="0071"/>
  <anchor x="310" y="0" name="bottom"/>
  <anchor x="392" y="-84" name="center"/>
  <anchor x="310" y="510" name="top"/>
  <outline>
    <contour>
      <point x="365" y="-233" type="line"/>
      <point x="375" y="-233" type="line"/>
      <point x="375" y="510" type="line"/>
      <point x="368" y="510" type="line"/>
      <point x="365" y="427" type="line"/>
      <point x="361" y="427" type="line"/>
      <point x="337" y="490"/>
      <point x="288" y="518"/>
      <point x="199" y="518" type="curve" smooth="yes"/>
      <point x="89" y="518"/>
      <point x="70" y="479"/>
      <point x="70" y="259" type="curve" smooth="yes"/>
      <point x="70" y="251" type="line" smooth="yes"/>
      <point x="70" y="31"/>
      <point x="89" y="-8"/>
      <point x="199" y="-8" type="curve" smooth="yes"/>
      <point x="288" y="-8"/>
      <point x="337" y="20"/>
      <point x="361" y="83" type="curve"/>
      <point x="365" y="83" type="line"/>
    </contour>
    <contour>
      <point x="203" y="62" type="curve" smooth="yes"/>
      <point x="111" y="62"/>
      <point x="80" y="97"/>
      <point x="80" y="203" type="curve" smooth="yes"/>
      <point x="80" y="307" type="line" smooth="yes"/>
      <point x="80" y="413"/>
      <point x="111" y="448"/>
      <point x="203" y="448" type="curve" smooth="yes"/>
      <point x="338" y="448"/>
      <point x="365" y="415"/>
      <point x="365" y="266" type="curve" smooth="yes"/>
      <point x="365" y="244" type="line" smooth="yes"/>
      <point x="365" y="95"/>
      <point x="338" y="62"/>
    </contour>
  </outline>
</glyph>
<glyph name="r" format="2">
  <advance width="327"/>
  <unicode hex="0072"/>
  <anchor x="164" y="0" name="bottom"/>
  <anchor x="164" y="510" name="top"/>
  <outline>
    <contour>
      <point x="100" y="0" type="line"/>
      <point x="110" y="0" type="line"/>
      <point x="110" y="276" type="line" smooth="yes"/>
      <point x="110" y="417"/>
      <point x="140" y="448"/>
      <point x="272" y="448" type="curve" smooth="yes"/>
      <point x="298" y="448" type="line"/>
      <point x="298" y="518" type="line"/>
      <point x="197" y="518"/>
      <point x="142" y="494"/>
      <point x="114" y="437" type="curve"/>
      <point x="110" y="437" type="line"/>
      <point x="107" y="510" type="line"/>
      <point x="100" y="510" type="line"/>
    </contour>
  </outline>
</glyph>
<glyph name="s" format="2">
  <advance width="387"/>
  <unicode hex="0073"/>
  <anchor x="194" y="0" name="bottom"/>
  <anchor x="194" y="510" name="top"/>
  <outline>
    <contour>
      <point x="176" y="-8" type="curve" smooth="yes"/>
      <point x="283" y="-8"/>
      <point x="322" y="34"/>
      <point x="322" y="149" type="curve" smooth="yes"/>
      <point x="322" y="226"/>
      <point x="303" y="250"/>
      <point x="237" y="257" type="curve" smooth="yes"/>
      <point x="148" y="266" type="line" smooth="yes"/>
      <point x="89" y="272"/>
      <point x="75" y="291"/>
      <point x="75" y="365" type="curve" smooth="yes"/>
      <point x="75" y="429"/>
      <point x="106" y="448"/>
      <point x="210" y="448" type="curve" smooth="yes"/>
      <point x="241" y="448"/>
      <point x="279" y="444"/>
      <point x="309" y="438" type="curve"/>
      <point x="309" y="506" type="line"/>
      <point x="272" y="514"/>
      <point x="230" y="518"/>
      <point x="206" y="518" type="curve" smooth="yes"/>
      <point x="101" y="518"/>
      <point x="65" y="479"/>
      <point x="65" y="365" type="curve" smooth="yes"/>
      <point x="65" y="288"/>
      <point x="84" y="262"/>
      <point x="144" y="256" type="curve" smooth="yes"/>
      <point x="233" y="247" type="line" smooth="yes"/>
      <point x="297" y="240"/>
      <point x="312" y="222"/>
      <point x="312" y="149" type="curve" smooth="yes"/>
      <point x="312" y="81"/>
      <point x="281" y="62"/>
      <point x="172" y="62" type="curve" smooth="yes"/>
      <point x="139" y="62"/>
      <point x="99" y="66"/>
      <point x="68" y="72" type="curve"/>
      <point x="68" y="4" type="line"/>
      <point x="107" y="-4"/>
      <point x="151" y="-8"/>
    </contour>
  </outline>
</glyph>
<glyph name="t" format="2">
  <advance width="234"/>
  <unicode hex="0074"/>
  <anchor x="126" y="0" name="bottom"/>
  <anchor x="126" y="743" name="top"/>
  <outline>
    <contour>
      <point x="105" y="0" type="line"/>
      <point x="115" y="0" type="line"/>
      <point x="115" y="688" type="line"/>
      <point x="105" y="688" type="line"/>
    </contour>
    <contour>
      <point x="20" y="440" type="line"/>
      <point x="108" y="440" type="line"/>
      <point x="108" y="510" type="line"/>
      <point x="20" y="510" type="line"/>
    </contour>
    <contour>
      <point x="112" y="440" type="line"/>
      <point x="229" y="440" type="line"/>
      <point x="229" y="510" type="line"/>
      <point x="112" y="510" type="line"/>
    </contour>
  </outline>
</glyph>
<glyph name="u" format="2">
  <advance width="479"/>
  <unicode hex="0075"/>
  <anchor x="240" y="0" name="bottom"/>
  <anchor x="431" y="10" name="ogonek"/>
  <anchor x="240" y="510" name="top"/>
  <anchor x="459" y="510" name="topright"/>
  <outline>
    <contour>
      <point x="379" y="510" type="line"/>
      <point x="369" y="510" type="line"/>
      <point x="369" y="197" type="line" smooth="yes"/>
      <point x="369" y="94"/>
      <point x="333" y="62"/>
      <point x="218" y="62" type="curve" smooth="yes"/>
      <point x="129" y="62"/>
      <point x="105" y="82"/>
      <point x="105" y="158" type="curve" smooth="yes"/>
      <point x="105" y="510" type="line"/>
      <point x="95" y="510" type="line"/>
      <point x="95" y="157" type="line" smooth="yes"/>
      <point x="95" y="37"/>
      <point x="133" y="-8"/>
      <point x="229" y="-8" type="curve" smooth="yes"/>
      <point x="304" y="-8"/>
      <point x="348" y="19"/>
      <point x="367" y="78" type="curve"/>
      <point x="371" y="78" type="line"/>
      <point x="374" y="0" type="line"/>
      <point x="379" y="0" type="line"/>
    </contour>
  </outline>
</glyph>
<glyph name="w" format="2">
  <advance width="580"/>
  <unicode hex="0077"/>
  <anchor x="385" y="0" name="bottom"/>
  <anchor x="385" y="510" name="top"/>
  <outline>
    <contour>
      <point x="113" y="0" type="line"/>
      <point x="187" y="0" type="line"/>
      <point x="288" y="436" type="line"/>
      <point x="370" y="0" type="line"/>
      <point x="444" y="0" type="line"/>
      <point x="555" y="510" type="line"/>
      <point x="474" y="510" type="line"/>
      <point x="375" y="56" type="line"/>
      <point x="370" y="56" type="line"/>
      <point x="285" y="510" type="line"/>
      <point x="227" y="510" type="line"/>
      <point x="118" y="56" type="line"/>
      <point x="113" y="56" type="line"/>
      <point x="35" y="510" type="line"/>
      <point x="25" y="510" type="line"/>
    </contour>
  </outline>
</glyph>
<glyph name="y" format="2">
  <advance width="479"/>
  <unicode hex="0079"/>
  <anchor x="240" y="0" name="bottom"/>
  <anchor x="240" y="510" name="top"/>
  <outline>
    <contour>
      <point x="243" y="-208" type="curve" smooth="yes"/>
      <point x="359" y="-208"/>
      <point x="379" y="-169"/>
      <point x="379" y="51" type="curve" smooth="yes"/>
      <point x="379" y="510" type="line"/>
      <point x="369" y="510" type="line"/>
      <point x="369" y="244" type="line" smooth="yes"/>
      <point x="369" y="94"/>
      <point x="343" y="62"/>
      <point x="219" y="62" type="curve" smooth="yes"/>
      <point x="116" y="62"/>
      <point x="105" y="85"/>
      <point x="105" y="203" type="curve" smooth="yes"/>
      <point x="105" y="510" type="line"/>
      <point x="95" y="510" type="line"/>
      <point x="95" y="251" type="line" smooth="yes"/>
      <point x="95" y="31"/>
      <point x="113" y="-8"/>
      <point x="215" y="-8" type="curve" smooth="yes"/>
      <point x="297" y="-8"/>
      <point x="343" y="20"/>
      <point x="365" y="83" type="curve"/>
      <point x="369" y="83" type="line"/>
      <point x="369" y="49" type="line" smooth="yes"/>
      <point x="369" y="-117"/>
      <point x="355" y="-138"/>
      <point x="243" y="-138" type="curve" smooth="yes"/>
      <point x="202" y="-138"/>
      <point x="160" y="-135"/>
      <point x="127" y="-130" type="curve"/>
      <point x="127" y="-198" type="line"/>
      <point x="156" y="-204"/>
      <point x="197" y="-208"/>
    </contour>
  </outline>
</glyph>
<glyph name="z" format="2">
  <advance width="374"/>
  <unicode hex="007A"/>
  <anchor x="134" y="0" name="bottom"/>
  <anchor x="128" y="255" name="center"/>
  <anchor x="134" y="510" name="top"/>
  <outline>
    <contour>
      <point x="25" y="0" type="line"/>
      <point x="349" y="0" type="line"/>
      <point x="349" y="10" type="line"/>
      <point x="108" y="10" type="line"/>
      <point x="108" y="14" type="line"/>
      <point x="347" y="493" type="line"/>
      <point x="347" y="510" type="line"/>
      <point x="37" y="510" type="line"/>
      <point x="37" y="500" type="line"/>
      <point x="263" y="500" type="line"/>
      <point x="263" y="496" type="line"/>
      <point x="25" y="17" type="line"/>
    </contour>
  </outline>
</glyph>
<glyph name="bar" format="2">
  <advance width="290"/>
  <unicode hex="007C"/>
  <outline>
    <contour>
      <point x="140" y="-161" type="line"/>
      <point x="150" y="-161" type="line"/>
      <point x="150" y="743" type="line"/>
      <point x="140" y="743" type="line"/>
    </contour>
  </outline>
</glyph>
<glyph name="jdotless" format="2">
  <advance width="212"/>
  <unicode hex="0237"/>
  <anchor x="106" y="-200" name="bottom"/>
  <anchor x="106" y="510" name="top"/>
  <outline>
    <contour>
      <point x="112" y="510" type="line"/>
      <point x="100" y="510" type="line"/>
      <point x="100" y="-55" type="line" smooth="yes"/>
      <point x="100" y="-118"/>
      <point x="85" y="-130"/>
      <point x="5" y="-130" type="curve"/>
      <point x="5" y="-200" type="line"/>
      <point x="89" y="-200"/>
      <point x="112" y="-167"/>
      <point x="112" y="-48" type="curve" smooth="yes"/>
    </contour>
  </outline>
</glyph>
<glyph name="dotaccentcomb" format="2">
  <advance width="68"/>
  <unicode hex="0307"/>
  <anchor x="34" y="510" name="_top"/>
  <anchor x="34" y="656" name="top"/>
  <outline>
    <contour>
      <point x="20" y="628" type="line"/>
      <point x="48" y="628" type="line"/>
      <point x="48" y="656" type="line"/>
      <point x="20" y="656" type="line"/>
    </contour>
  </outline>
</glyph>
<glyph name="strokelongcomb" format="2">
  <advance width="531.91304"/>
  <unicode hex="0336"/>
  <anchor x="265.957" y="516.891" name="_center"/>
  <outline>
    <contour>
      <point x="0" y="482.043" type="line"/>
      <point x="531.913" y="482.043" type="line"/>
      <point x="531.913" y="551.739" type="line"/>
      <point x="0" y="551.739" type="line"/>
    </contour>
  </outline>
</glyph>
<glyph name="Delta" format="2">
  <advance width="684.08696"/>
  <unicode hex="0394"/>
  <outline>
    <contour>
      <point x="28.043" y="0" type="line"/>
      <point x="656.043" y="0" type="line"/>
      <point x="395.957" y="688" type="line"/>
      <point x="288.13" y="688" type="line"/>
    </contour>
    <contour>
      <point x="137.652" y="74.217" type="line"/>
      <point x="337.913" y="603.848" type="line"/>
      <point x="342.913" y="603.848" type="line"/>
      <point x="543.804" y="74.217" type="line"/>
    </contour>
  </outline>
</glyph>
<glyph name="emdash" format="2">
  <advance width="873.17391"/>
  <unicode hex="2014"/>
  <outline>
    <contour>
      <point x="56.848" y="270.152" type="line"/>
      <point x="816.326" y="270.152" type="line"/>
      <point x="816.326" y="337.304" type="line"/>
      <point x="56.848" y="337.304" type="line"/>
    </contour>
  </outline>
</glyph>
<glyph name="daggerdbl" format="2">
  <advance width="450.13043"/>
  <unicode hex="2021"/>
  <outline>
    <contour>
      <point x="198.978" y="0" type="line"/>
      <point x="251.152" y="0" type="line"/>
      <point x="258.239" y="172.413" type="line"/>
      <point x="394.152" y="179.5" type="line"/>
      <point x="394.152" y="230.674" type="line"/>
      <point x="258.239" y="238.304" type="line"/>
      <point x="258.239" y="449.152" type="line"/>
      <point x="394.152" y="456.239" type="line"/>
      <point x="394.152" y="507.413" type="line"/>
      <point x="258.239" y="515.043" type="line"/>
      <point x="251.152" y="688" type="line"/>
      <point x="198.978" y="688" type="line"/>
      <point x="191.348" y="515.043" type="line"/>
      <point x="55.978" y="507.413" type="line"/>
      <point x="55.978" y="456.239" type="line"/>
      <point x="191.348" y="449.152" type="line"/>
      <point x="191.348" y="238.304" type="line"/>
      <point x="55.978" y="230.674" type="line"/>
      <point x="55.978" y="179.5" type="line"/>
      <point x="191.348" y="172.413" type="line"/>
    </contour>
  </outline>
</glyph>
<glyph name="ruble" format="2">
  <advance width="651.73913"/>
  <unicode hex="20BD"/>
  <outline>
    <contour>
      <point x="99.783" y="0" type="line"/>
      <point x="185.783" y="0" type="line"/>
      <point x="185.783" y="109.978" type="line"/>
      <point x="394.413" y="109.978" type="line"/>
      <point x="394.413" y="164.261" type="line"/>
      <point x="185.783" y="164.261" type="line"/>
      <point x="185.783" y="253.348" type="line"/>
      <point x="399.196" y="253.348" type="line" smooth="yes"/>
      <point x="577.283" y="253.348"/>
      <point x="598.696" y="351.261"/>
      <point x="598.696" y="470.674" type="curve" smooth="yes"/>
      <point x="598.696" y="594.978"/>
      <point x="576.478" y="688"/>
      <point x="401.37" y="688" type="curve" smooth="yes"/>
      <point x="99.783" y="688" type="line"/>
      <point x="99.783" y="327.565" type="line"/>
      <point x="0" y="327.565" type="line"/>
      <point x="0" y="253.348" type="line"/>
      <point x="99.783" y="253.348" type="line"/>
      <point x="99.783" y="164.261" type="line"/>
      <point x="0" y="164.261" type="line"/>
      <point x="0" y="109.978" type="line"/>
      <point x="99.783" y="109.978" type="line"/>
    </contour>
    <contour>
      <point x="185.783" y="327.565" type="line"/>
      <point x="185.783" y="613.783" type="line"/>
      <point x="372.739" y="613.783" type="line" smooth="yes"/>
      <point x="504.609" y="613.783"/>
      <point x="512.696" y="570.696"/>
      <point x="512.696" y="470.674" type="curve" smooth="yes"/>
      <point x="512.696" y="370.652"/>
      <point x="502.696" y="327.565"/>
      <point x="370.565" y="327.565" type="curve" smooth="yes"/>
    </contour>
  </outline>
</glyph>
<glyph name="upArrow" format="2">
  <advance width="395"/>
  <unicode hex="2191"/>
  <outline>
    <contour>
      <point x="165.783" y="-81.543" type="line"/>
      <point x="230.217" y="-81.543" type="line"/>
      <point x="230.217" y="456.804" type="line"/>
      <point x="326.304" y="419.696" type="line"/>
      <point x="198" y="691" type="line"/>
      <point x="68.696" y="419.696" type="line"/>
      <point x="165.783" y="456.804" type="line"/>
    </contour>
  </outline>
</glyph>
<glyph name="rightArrow" format="2">
  <advance width="883"/>
  <unicode hex="2192"/>
  <outline>
    <contour>
      <point x="556.696" y="175.696" type="line"/>
      <point x="828" y="304" type="line"/>
      <point x="556.696" y="433.304" type="line"/>
      <point x="593.804" y="336.217" type="line"/>
      <point x="55" y="336.217" type="line"/>
      <point x="55" y="271.783" type="line"/>
      <point x="593.804" y="271.783" type="line"/>
    </contour>
  </outline>
</glyph>
<glyph name="leftRightArrow" format="2">
  <advance width="883"/>
  <unicode hex="2194"/>
  <outline>
    <contour>
      <point x="326.304" y="175.696" type="line"/>
      <point x="288.739" y="271.783" type="line"/>
      <point x="593.804" y="271.783" type="line"/>
      <point x="556.696" y="175.696" type="line"/>
      <point x="828" y="304" type="line"/>
      <point x="556.696" y="433.304" type="line"/>
      <point x="593.804" y="336.217" type="line"/>
      <point x="288.739" y="336.217" type="line"/>
      <point x="326.304" y="433.304" type="line"/>
      <point x="55" y="304" type="line"/>
    </contour>
  </outline>
</glyph>
<glyph name="integral" format="2">
  <advance width="393.67391"/>
  <unicode hex="222B"/>
  <outline>
    <contour>
      <point x="57.283" y="-190" type="line"/>
      <point x="206.587" y="-190"/>
      <point x="255.696" y="-173.674"/>
      <point x="255.696" y="-73.283" type="curve" smooth="yes"/>
      <point x="255.696" y="-64.935"/>
      <point x="255.152" y="-55.587"/>
      <point x="252.783" y="-15.935" type="curve" smooth="yes"/>
      <point x="213.348" y="536" type="line" smooth="yes"/>
      <point x="212.348" y="552.283"/>
      <point x="211.348" y="570.565"/>
      <point x="211.348" y="578.478" type="curve" smooth="yes"/>
      <point x="211.348" y="622.478"/>
      <point x="234.348" y="633.391"/>
      <point x="328.022" y="633.391" type="curve"/>
      <point x="328.022" y="696" type="line"/>
      <point x="178.717" y="696"/>
      <point x="129.152" y="679.217"/>
      <point x="129.152" y="579.283" type="curve" smooth="yes"/>
      <point x="129.152" y="566.826"/>
      <point x="129.696" y="555.565"/>
      <point x="130.696" y="538.37" type="curve" smooth="yes"/>
      <point x="170.5" y="-13.043" type="line" smooth="yes"/>
      <point x="173.413" y="-57.239"/>
      <point x="173.957" y="-66.217"/>
      <point x="173.957" y="-72.478" type="curve" smooth="yes"/>
      <point x="173.957" y="-116.478"/>
      <point x="150.957" y="-127.391"/>
      <point x="57.283" y="-127.391" type="curve"/>
    </contour>
  </outline>
</glyph>
<glyph name="rightanglebracket-math" format="2">
  <advance width="285.56522"/>
  <unicode hex="27E9"/>
  <outline>
    <contour>
      <point x="27.5" y="-62" type="line"/>
      <point x="103" y="-62" type="line"/>
      <point x="251" y="344" type="line"/>
      <point x="103" y="750" type="line"/>
      <point x="27.5" y="750" type="line"/>
      <point x="175.5" y="344" type="line"/>
    </contour>
  </outline>
</glyph>
<glyph name="C.001" format="2">
  <advance width="537"/>
  <anchor x="248" y="0" name="bottom"/>
  <anchor x="248" y="688" name="top"/>
  <outline>
    <contour>
      <point x="282" y="-8" type="curve" smooth="yes"/>
      <point x="338" y="-8"/>
      <point x="404" y="-3"/>
      <point x="442" y="5" type="curve"/>
      <point x="442" y="76" type="line"/>
      <point x="405" y="70"/>
      <point x="342" y="66"/>
      <point x="282" y="66" type="curve" smooth="yes"/>
      <point x="109" y="66"/>
      <point x="86" y="95"/>
      <point x="86" y="310" type="curve" smooth="yes"/>
      <point x="86" y="378" type="line" smooth="yes"/>
      <point x="86" y="593"/>
      <point x="109" y="622"/>
      <point x="282" y="622" type="curve" smooth="yes"/>
      <point x="339" y="622"/>
      <point x="395" y="619"/>
      <point x="438" y="612" type="curve"/>
      <point x="438" y="681" type="line"/>
      <point x="401" y="690"/>
      <point x="336" y="696"/>
      <point x="282" y="696" type="curve" smooth="yes"/>
      <point x="107" y="696"/>
      <point x="76" y="644"/>
      <point x="76" y="349" type="curve" smooth="yes"/>
      <point x="76" y="339" type="line" smooth="yes"/>
      <point x="76" y="44"/>
      <point x="107" y="-8"/>
    </contour>
  </outline>
</glyph>
<glyph name="M.001" format="2">
  <advance width="816"/>
  <anchor x="393" y="0" name="bottom"/>
  <anchor x="393" y="688" name="top"/>
  <outline>
    <contour>
      <point x="100" y="0" type="line"/>
      <point x="182" y="0" type="line"/>
      <point x="182" y="603" type="line"/>
      <point x="186" y="603" type="line"/>
      <point x="411" y="0" type="line"/>
      <point x="451" y="0" type="line"/>
      <point x="702" y="603" type="line"/>
      <point x="706" y="603" type="line"/>
      <point x="706" y="0" type="line"/>
      <point x="716" y="0" type="line"/>
      <point x="716" y="688" type="line"/>
      <point x="650" y="688" type="line"/>
      <point x="398" y="75" type="line"/>
      <point x="394" y="75" type="line"/>
      <point x="165" y="688" type="line"/>
      <point x="100" y="688" type="line"/>
    </contour>
  </outline>
</glyph>
<glyph name="X.001" format="2">
  <advance width="674.54348"/>
  <anchor x="337.543" y="0" name="bottom"/>
  <anchor x="337.543" y="688" name="top"/>
  <outline>
    <contour>
      <point x="29.13" y="0" type="line"/>
      <point x="127.478" y="0" type="line"/>
      <point x="331.913" y="276.043" type="line"/>
      <point x="339.913" y="276.043" type="line"/>
      <point x="543.891" y="0" type="line"/>
      <point x="645.413" y="0" type="line"/>
      <point x="389.978" y="347.543" type="line"/>
      <point x="642.413" y="688" type="line"/>
      <point x="543.522" y="688" type="line"/>
      <point x="342.63" y="417.674" type="line"/>
      <point x="335.087" y="417.674" type="line"/>
      <point x="134.652" y="688" type="line"/>
      <point x="33.13" y="688" type="line"/>
      <point x="285.109" y="345.457" type="line"/>
    </contour>
  </outline>
</glyph>
<glyph name="Y.001" format="2">
  <advance width="556"/>
  <anchor x="283" y="0" name="bottom"/>
  <anchor x="283" y="688" name="top"/>
  <anchor x="-10" y="688" name="topleft"/>
  <outline>
    <contour>
      <point x="274" y="0" type="line"/>
      <point x="284" y="0" type="line"/>
      <point x="284" y="312" type="line"/>
      <point x="280" y="259" type="line"/>
      <point x="546" y="688" type="line"/>
      <point x="452" y="688" type="line"/>
      <point x="240" y="344" type="line"/>
      <point x="236" y="344" type="line"/>
      <point x="22" y="688" type="line"/>
      <point x="10" y="688" type="line"/>
      <point x="278" y="259" type="line"/>
      <point x="274" y="312" type="line"/>
    </contour>
  </outline>
</glyph>
<glyph name="Y.loclGUA" format="2">
  <advance width="609.5"/>
  <anchor x="303.978" y="0" name="bottom"/>
  <anchor x="303.978" y="688" name="top"/>
  <anchor x="42.283" y="688" name="topleft"/>
  <outline>
    <contour>
      <point x="304.978" y="196.565" type="curve" smooth="yes"/>
      <point x="541.152" y="196.565"/>
      <point x="567.217" y="256.935"/>
      <point x="567.217" y="505.087" type="curve" smooth="yes"/>
      <point x="567.217" y="688" type="line"/>
      <point x="481.217" y="688" type="line"/>
      <point x="481.217" y="471.826" type="line" smooth="yes"/>
      <point x="481.217" y="304.739"/>
      <point x="472.565" y="270.783"/>
      <point x="304.978" y="270.783" type="curve" smooth="yes"/>
      <point x="137.391" y="270.783"/>
      <point x="128.283" y="304.739"/>
      <point x="128.283" y="471.826" type="curve" smooth="yes"/>
      <point x="128.283" y="688" type="line"/>
      <point x="42.283" y="688" type="line"/>
      <point x="42.283" y="505.087" type="line" smooth="yes"/>
      <point x="42.283" y="256.935"/>
      <point x="68.804" y="196.565"/>
    </contour>
    <contour>
      <point x="260.891" y="0" type="line"/>
      <point x="346.891" y="0" type="line"/>
      <point x="346.891" y="234.674" type="line"/>
      <point x="260.891" y="234.674" type="line"/>
    </contour>
  </outline>
</glyph>
<glyph name="Z.001" format="2">
  <advance width="503"/>
  <anchor x="247" y="0" name="bottom"/>
  <anchor x="247" y="344" name="center"/>
  <anchor x="247" y="688" name="top"/>
  <outline>
    <contour>
      <point x="50" y="0" type="line"/>
      <point x="453" y="0" type="line"/>
      <point x="453" y="10" type="line"/>
      <point x="127" y="10" type="line"/>
      <point x="448" y="653" type="line"/>
      <point x="448" y="688" type="line"/>
      <point x="61" y="688" type="line"/>
      <point x="61" y="678" type="line"/>
      <point x="371" y="678" type="line"/>
      <point x="50" y="35" type="line"/>
    </contour>
  </outline>
</glyph>
<glyph name="_tail.Q" format="2">
  <advance width="74"/>
  <anchor x="25" y="10" name="_bottom"/>
  <outline>
    <contour>
      <point x="20" y="10" type="line"/>
      <point x="44" y="-116" type="line"/>
      <point x="54" y="-116" type="line"/>
      <point x="30" y="10" type="line"/>
    </contour>
  </outline>
</glyph>
<glyph name="a.001" format="2">
  <advance width="442"/>
  <anchor x="221" y="0" name="bottom"/>
  <anchor x="455" y="10" name="ogonek"/>
  <anchor x="221" y="510" name="top"/>
  <outline>
    <contour>
      <point x="197" y="-8" type="curve" smooth="yes"/>
      <point x="272" y="-8"/>
      <point x="316" y="19"/>
      <point x="335" y="78" type="curve"/>
      <point x="339" y="78" type="line"/>
      <point x="342" y="0" type="line"/>
      <point x="347" y="0" type="line"/>
      <point x="347" y="259" type="line" smooth="yes"/>
      <point x="347" y="479"/>
      <point x="326" y="518"/>
      <point x="204" y="518" type="curve" smooth="yes"/>
      <point x="170" y="518"/>
      <point x="133" y="513"/>
      <point x="89" y="503" type="curve"/>
      <point x="89" y="435" type="line"/>
      <point x="130" y="444"/>
      <point x="171" y="448"/>
      <point x="222" y="448" type="curve" smooth="yes"/>
      <point x="329" y="448"/>
      <point x="337" y="436"/>
      <point x="337" y="279" type="curve" smooth="yes"/>
      <point x="337" y="197" type="line" smooth="yes"/>
      <point x="337" y="94"/>
      <point x="301" y="62"/>
      <point x="186" y="62" type="curve" smooth="yes"/>
      <point x="97" y="62"/>
      <point x="73" y="82"/>
      <point x="73" y="158" type="curve" smooth="yes"/>
      <point x="73" y="245"/>
      <point x="101" y="265"/>
      <point x="222" y="265" type="curve" smooth="yes"/>
      <point x="339" y="265" type="line"/>
      <point x="339" y="275" type="line"/>
      <point x="210" y="275" type="line" smooth="yes"/>
      <point x="95" y="275"/>
      <point x="63" y="249"/>
      <point x="63" y="157" type="curve" smooth="yes"/>
      <point x="63" y="27"/>
      <point x="91" y="-8"/>
    </contour>
  </outline>
</glyph>
<glyph name="acute.loclPLK" format="2">
  <advance width="138.86956"/>
  <anchor x="7.065" y="510" name="_top"/>
  <anchor x="7.065" y="683" name="top"/>
  <outline>
    <contour>
      <point x="0" y="594.13" type="line"/>
      <point x="60.152" y="594.13" type="line"/>
      <point x="138.87" y="729.848" type="line"/>
      <point x="138.87" y="734.848" type="line"/>
      <point x="51.022" y="734.848" type="line"/>
      <point x="0" y="599.13" type="line"/>
    </contour>
  </outline>
</glyph>
<glyph name="c.001" format="2">
  <advance width="400"/>
  <anchor x="200" y="0" name="bottom"/>
  <anchor x="200" y="510" name="top"/>
  <outline>
    <contour>
      <point x="217" y="-8" type="curve" smooth="yes"/>
      <point x="267" y="-8"/>
      <point x="324" y="-2"/>
      <point x="358" y="7" type="curve"/>
      <point x="358" y="75" type="line"/>
      <point x="321" y="67"/>
      <point x="260" y="62"/>
      <point x="212" y="62" type="curve" smooth="yes"/>
      <point x="96" y="62"/>
      <point x="80" y="82"/>
      <point x="80" y="231" type="curve" smooth="yes"/>
      <point x="80" y="279" type="line" smooth="yes"/>
      <point x="80" y="428"/>
      <point x="96" y="448"/>
      <point x="212" y="448" type="curve" smooth="yes"/>
      <point x="258" y="448"/>
      <point x="317" y="443"/>
      <point x="353" y="435" type="curve"/>
      <point x="353" y="503" type="line"/>
      <point x="320" y="512"/>
      <point x="265" y="518"/>
      <point x="217" y="518" type="curve" smooth="yes"/>
      <point x="92" y="518"/>
      <point x="70" y="479"/>
      <point x="70" y="259" type="curve" smooth="yes"/>
      <point x="70" y="251" type="line" smooth="yes"/>
      <point x="70" y="31"/>
      <point x="92" y="-8"/>
    </contour>
  </outline>
</glyph>
<glyph name="c.002" format="2">
  <advance width="364"/>
  <anchor x="182" y="0" name="bottom"/>
  <anchor x="182" y="510" name="top"/>
  <outline>
    <contour>
      <point x="199" y="-8" type="curve" smooth="yes"/>
      <point x="244" y="-8"/>
      <point x="292" y="-2"/>
      <point x="322" y="7" type="curve"/>
      <point x="322" y="75" type="line"/>
      <point x="291" y="67"/>
      <point x="236" y="62"/>
      <point x="194" y="62" type="curve" smooth="yes"/>
      <point x="94" y="62"/>
      <point x="80" y="82"/>
      <point x="80" y="231" type="curve" smooth="yes"/>
      <point x="80" y="279" type="line" smooth="yes"/>
      <point x="80" y="428"/>
      <point x="94" y="448"/>
      <point x="194" y="448" type="curve" smooth="yes"/>
      <point x="234" y="448"/>
      <point x="287" y="443"/>
      <point x="317" y="435" type="curve"/>
      <point x="317" y="503" type="line"/>
      <point x="288" y="512"/>
      <point x="241" y="518"/>
      <point x="199" y="518" type="curve" smooth="yes"/>
      <point x="89" y="518"/>
      <point x="70" y="479"/>
      <point x="70" y="259" type="curve" smooth="yes"/>
      <point x="70" y="251" type="line" smooth="yes"/>
      <point x="70" y="31"/>
      <point x="89" y="-8"/>
    </contour>
  </outline>
</glyph>
<glyph name="circumflexcomb_hookabovecomb" format="2">
  <advance width="289.34783"/>
  <anchor x="144.674" y="510" name="_top"/>
  <anchor x="144.674" y="866" name="top"/>
  <outline>
    <contour>
      <point x="0" y="594.587" type="line"/>
      <point x="55.804" y="594.587" type="line"/>
      <point x="144.13" y="691.174" type="line"/>
      <point x="233" y="594.587" type="line"/>
      <point x="289.348" y="594.587" type="line"/>
      <point x="289.348" y="600.674" type="line"/>
      <point x="187.239" y="735.304" type="line"/>
      <point x="101.565" y="735.304" type="line"/>
      <point x="0" y="600.674" type="line"/>
    </contour>
    <contour>
      <point x="99.348" y="759.13" type="line"/>
      <point x="148" y="759.13" type="line"/>
      <point x="148" y="781.87"/>
      <point x="149.63" y="784.413"/>
      <point x="188.652" y="795.326" type="curve" smooth="yes"/>
      <point x="213.217" y="802.239" type="line" smooth="yes"/>
      <point x="263.043" y="816.239"/>
      <point x="275.109" y="832.065"/>
      <point x="275.109" y="877.13" type="curve" smooth="yes"/>
      <point x="275.109" y="946.63"/>
      <point x="231.413" y="954.543"/>
      <point x="144.13" y="954.543" type="curve" smooth="yes"/>
      <point x="109.87" y="954.543"/>
      <point x="60.152" y="951.457"/>
      <point x="27.609" y="946.913" type="curve"/>
      <point x="27.609" y="903.522" type="line"/>
      <point x="60.348" y="906.522"/>
      <point x="105.609" y="908.522"/>
      <point x="130.152" y="908.522" type="curve" smooth="yes"/>
      <point x="198.478" y="908.522"/>
      <point x="218.022" y="908.522"/>
      <point x="218.022" y="870.957" type="curve" smooth="yes"/>
      <point x="218.022" y="846.761"/>
      <point x="211.565" y="842.304"/>
      <point x="166.261" y="829.478" type="curve" smooth="yes"/>
      <point x="143.522" y="823.022" type="line" smooth="yes"/>
      <point x="108.804" y="812.935"/>
      <point x="99.348" y="798.957"/>
      <point x="99.348" y="768.5" type="curve" smooth="yes"/>
    </contour>
  </outline>
</glyph>
<glyph name="commaaccentcomb.case" format="2">
  <advance width="112.23913"/>
  <anchor x="66.043" y="0" name="_bottom"/>
  <anchor x="66.043" y="-282.63" name="bottom"/>
  <outline>
    <contour>
      <point x="0" y="-282.63" type="line"/>
      <point x="96.696" y="-282.63"/>
      <point x="112.239" y="-259.826"/>
      <point x="112.239" y="-163.37" type="curve" smooth="yes"/>
      <point x="112.239" y="-83.478" type="line"/>
      <point x="20.761" y="-83.478" type="line"/>
      <point x="20.761" y="-177.826" type="line"/>
      <point x="58.152" y="-177.826" type="line"/>
      <point x="58.152" y="-194.826" type="line" smooth="yes"/>
      <point x="58.152" y="-235.674"/>
      <point x="48.261" y="-245.326"/>
      <point x="0" y="-245.326" type="curve"/>
    </contour>
  </outline>
</glyph>
<glyph name="gravecomb.case" format="2">
  <advance width="188.86956"/>
  <anchor x="134.783" y="510" name="_top"/>
  <anchor x="135.326" y="683.457" name="top"/>
  <outline>
    <contour>
      <point x="128.717" y="595.043" type="line"/>
      <point x="188.87" y="595.043" type="line"/>
      <point x="188.87" y="600.043" type="line"/>
      <point x="87.848" y="735.304" type="line"/>
      <point x="0" y="735.304" type="line"/>
      <point x="0" y="730.304" type="line"/>
    </contour>
  </outline>
</glyph>
<glyph name="n.001" format="2">
  <advance width="479"/>
  <anchor x="240" y="0" name="bottom"/>
  <anchor x="240" y="510" name="top"/>
  <outline>
    <contour>
      <point x="100" y="0" type="line"/>
      <point x="110" y="0" type="line"/>
      <point x="110" y="235" type="line" smooth="yes"/>
      <point x="110" y="420"/>
      <point x="129" y="448"/>
      <point x="253" y="448" type="curve" smooth="yes"/>
      <point x="353" y="448"/>
      <point x="374" y="419"/>
      <point x="374" y="281" type="curve" smooth="yes"/>
      <point x="374" y="0" type="line"/>
      <point x="384" y="0" type="line"/>
      <point x="384" y="319" type="line" smooth="yes"/>
      <point x="384" y="472"/>
      <point x="356" y="518"/>
      <point x="258" y="518" type="curve" smooth="yes"/>
      <point x="182" y="518"/>
      <point x="138" y="493"/>
      <point x="117" y="437" type="curve"/>
      <point x="115" y="437" type="line"/>
      <point x="110" y="510" type="line"/>
      <point x="100" y="510" type="line"/>
    </contour>
  </outline>
</glyph>
<glyph name="orn.007" format="2">
  <advance width="337"/>
  <outline>
    <contour>
      <point x="168" y="222" type="curve" smooth="yes"/>
      <point x="235" y="222"/>
      <point x="289" y="275"/>
      <point x="289" y="342" type="curve" smooth="yes"/>
      <point x="289" y="409"/>
      <point x="235" y="463"/>
      <point x="168" y="463" type="curve" smooth="yes"/>
      <point x="101" y="463"/>
      <point x="48" y="409"/>
      <point x="48" y="342" type="curve" smooth="yes"/>
      <point x="48" y="275"/>
      <point x="101" y="222"/>
    </contour>
  </outline>
</glyph>
<glyph name="s.002" format="2">
  <advance width="393"/>
  <anchor x="197" y="0" name="bottom"/>
  <anchor x="197" y="510" name="top"/>
  <outline>
    <contour>
      <point x="179" y="-8" type="curve" smooth="yes"/>
      <point x="286" y="-8"/>
      <point x="325" y="34"/>
      <point x="325" y="149" type="curve" smooth="yes"/>
      <point x="325" y="226"/>
      <point x="306" y="250"/>
      <point x="240" y="257" type="curve" smooth="yes"/>
      <point x="151" y="266" type="line" smooth="yes"/>
      <point x="92" y="272"/>
      <point x="78" y="291"/>
      <point x="78" y="365" type="curve" smooth="yes"/>
      <point x="78" y="434"/>
      <point x="101" y="448"/>
      <point x="213" y="448" type="curve" smooth="yes"/>
      <point x="244" y="448"/>
      <point x="282" y="444"/>
      <point x="312" y="438" type="curve"/>
      <point x="312" y="506" type="line"/>
      <point x="275" y="514"/>
      <point x="233" y="518"/>
      <point x="209" y="518" type="curve" smooth="yes"/>
      <point x="109" y="518"/>
      <point x="68" y="473"/>
      <point x="68" y="365" type="curve" smooth="yes"/>
      <point x="68" y="288"/>
      <point x="87" y="262"/>
      <point x="147" y="256" type="curve" smooth="yes"/>
      <point x="236" y="247" type="line" smooth="yes"/>
      <point x="300" y="240"/>
      <point x="315" y="222"/>
      <point x="315" y="149" type="curve" smooth="yes"/>
      <point x="315" y="76"/>
      <point x="292" y="62"/>
      <point x="175" y="62" type="curve" smooth="yes"/>
      <point x="142" y="62"/>
      <point x="102" y="66"/>
      <point x="71" y="72" type="curve"/>
      <point x="71" y="4" type="line"/>
      <point x="110" y="-4"/>
      <point x="154" y="-8"/>
    </contour>
  </outline>
</glyph>
<glyph name="three.tosf" format="2">
  <advance width="620"/>
  <outline>
    <contour>
      <point x="279.543" y="-7" type="curve" smooth="yes"/>
      <point x="479.435" y="-7"/>
      <point x="517.783" y="56.804"/>
      <point x="517.783" y="156.543" type="curve" smooth="yes"/>
      <point x="517.783" y="249.826"/>
      <point x="476.043" y="284.283"/>
      <point x="405.239" y="297" type="curve"/>
      <point x="405.239" y="300.457" type="line"/>
      <point x="473.413" y="314.543"/>
      <point x="511.326" y="353"/>
      <point x="511.326" y="437.457" type="curve" smooth="yes"/>
      <point x="511.326" y="541.935"/>
      <point x="458.152" y="592"/>
      <point x="280.543" y="592" type="curve" smooth="yes"/>
      <point x="225.457" y="592"/>
      <point x="148.652" y="585.457"/>
      <point x="98.304" y="576.283" type="curve"/>
      <point x="98.304" y="513.13" type="line"/>
      <point x="148.391" y="519.674"/>
      <point x="220.935" y="523.674"/>
      <point x="265.109" y="523.674" type="curve" smooth="yes"/>
      <point x="381.717" y="523.674"/>
      <point x="427.957" y="514.652"/>
      <point x="427.957" y="426.304" type="curve" smooth="yes"/>
      <point x="427.957" y="344.239"/>
      <point x="374.804" y="329.848"/>
      <point x="318.609" y="329.848" type="curve" smooth="yes"/>
      <point x="202.761" y="329.848" type="line"/>
      <point x="202.761" y="262.609" type="line"/>
      <point x="318.609" y="262.609" type="line" smooth="yes"/>
      <point x="393.37" y="262.609"/>
      <point x="434.413" y="244.674"/>
      <point x="434.413" y="159.696" type="curve" smooth="yes"/>
      <point x="434.413" y="69.804"/>
      <point x="378.804" y="60.783"/>
      <point x="274.109" y="60.783" type="curve" smooth="yes"/>
      <point x="230.022" y="60.783"/>
      <point x="155.217" y="65.326"/>
      <point x="94.304" y="71.326" type="curve"/>
      <point x="94.304" y="7.717" type="line"/>
      <point x="146.304" y="-0.37"/>
      <point x="223.935" y="-7"/>
    </contour>
  </outline>
</glyph>
<glyph name="v.001" format="2">
  <advance width="457"/>
  <anchor x="140" y="0" name="bottom"/>
  <anchor x="140" y="510" name="top"/>
  <outline>
    <contour>
      <point x="204" y="0" type="line"/>
      <point x="238" y="0" type="line"/>
      <point x="430" y="510" type="line"/>
      <point x="345" y="510" type="line"/>
      <point x="189" y="85" type="line"/>
      <point x="185" y="85" type="line"/>
      <point x="38" y="510" type="line"/>
      <point x="27" y="510" type="line"/>
    </contour>
  </outline>
</glyph>
<glyph name="zero.tf.zero" format="2">
  <advance width="620"/>
  <outline>
    <contour>
      <point x="96.13" y="308.891" type="line"/>
      <point x="524.413" y="308.891" type="line"/>
      <point x="524.413" y="380.391" type="line"/>
      <point x="96.13" y="380.391" type="line"/>
    </contour>
    <component base="zero.tf"/>
  </outline>
</glyph>
